<?xml version="1.0" standalone="no"?>
<!DOCTYPE svg PUBLIC "-//W3C//DTD SVG 20010904//EN"
 "http://www.w3.org/TR/2001/REC-SVG-20010904/DTD/svg10.dtd">
<svg version="1.0" xmlns="http://www.w3.org/2000/svg"
 width="370.000000pt" height="370.000000pt" viewBox="0 0 370.000000 370.000000"
 preserveAspectRatio="xMidYMid meet">
<metadata>
Created by potrace 1.14, written by Peter Selinger 2001-2017
</metadata>
<g transform="translate(0.000000,370.000000) scale(0.100000,-0.100000)"
fill="#000000" stroke="none">
<path d="M3398 3678 c-21 -6 -38 -14 -38 -20 0 -5 -5 -6 -10 -3 -6 4 -26 1
-45 -5 l-35 -12 0 -89 0 -90 60 75 c33 42 63 76 66 76 3 0 -28 -43 -68 -96
-40 -53 -72 -100 -70 -105 1 -5 -2 -9 -8 -9 -10 0 -82 -91 -76 -97 2 -2 22 0
45 6 22 5 41 5 41 1 0 -5 -24 -12 -54 -15 -47 -6 -57 -12 -82 -45 -16 -21 -35
-36 -44 -34 -8 2 -28 -7 -43 -19 -28 -23 -31 -32 -41 -129 -2 -25 -11 -56 -18
-67 -14 -23 -76 -50 -122 -54 -26 -2 -33 4 -63 58 -46 82 -74 105 -127 105
-39 0 -45 4 -75 45 -40 56 -62 68 -125 66 -27 0 -59 5 -71 13 -35 23 -211 58
-258 52 -37 -5 -55 0 -126 34 -45 22 -89 40 -98 40 -8 0 -41 -16 -73 -35 -66
-40 -74 -41 -153 -17 -44 14 -72 17 -115 11 -31 -4 -82 -11 -112 -14 -76 -9
-140 -39 -186 -87 -51 -52 -74 -60 -132 -47 -25 5 -56 8 -68 5 -11 -3 -61 -38
-110 -77 -98 -78 -114 -86 -193 -100 -30 -4 -62 -16 -72 -25 -10 -9 -30 -48
-45 -88 -30 -80 -57 -119 -126 -188 -27 -26 -48 -56 -48 -66 0 -10 -14 -45
-31 -78 -17 -32 -39 -80 -48 -106 -10 -26 -34 -66 -53 -90 -20 -24 -38 -59
-42 -78 -3 -19 -20 -63 -36 -97 -28 -58 -29 -65 -18 -111 8 -36 8 -71 1 -124
-15 -102 -9 -266 12 -380 18 -98 38 -139 25 -52 -10 68 -10 282 0 334 5 25 16
83 25 130 23 120 75 246 154 380 86 143 147 221 263 334 l92 89 23 -29 23 -29
-65 -58 c-61 -55 -117 -125 -179 -224 -46 -75 -20 -46 38 41 57 85 118 154
182 202 30 23 39 26 55 16 10 -7 25 -12 34 -12 8 0 29 -14 47 -32 l32 -31 -86
-81 c-72 -67 -97 -100 -149 -191 -116 -206 -164 -347 -184 -540 -8 -79 -14
-111 -32 -167 -16 -49 -8 -95 23 -144 8 -11 29 -73 49 -138 57 -197 149 -361
276 -496 l61 -65 -59 70 c-143 169 -216 306 -268 503 -15 53 -37 118 -51 143
-27 53 -30 91 -10 140 7 19 21 90 31 159 19 137 50 247 100 356 53 117 158
285 194 313 18 14 53 45 77 68 l43 42 47 -47 47 -47 -37 47 c-20 25 -36 50
-36 55 0 10 136 101 211 142 92 48 255 99 389 121 174 28 185 28 238 15 26 -7
70 -16 97 -19 225 -30 479 -152 650 -310 l60 -56 -40 -37 c-40 -36 -34 -36 17
-1 14 10 28 18 31 18 2 0 31 -34 62 -77 95 -125 180 -300 206 -425 6 -28 22
-74 35 -104 24 -54 26 -114 10 -254 -3 -25 -8 -75 -11 -111 -12 -135 -81 -335
-152 -441 -37 -54 -89 -146 -77 -135 20 19 97 148 144 244 60 120 94 246 111
409 21 203 20 233 -5 299 -13 33 -31 91 -40 129 -30 127 -107 288 -200 414
-25 34 -46 66 -46 70 0 5 15 17 34 27 34 18 34 18 57 -6 13 -14 18 -17 10 -7
-23 30 2 45 28 17 102 -110 221 -362 266 -564 9 -44 23 -103 30 -132 13 -52
13 -91 1 -193 -3 -30 -9 -75 -11 -100 -19 -169 -78 -363 -146 -488 -66 -118
-221 -327 -272 -366 -46 -36 -54 -33 -15 5 l33 31 -33 -25 c-18 -15 -31 -28
-30 -31 5 -7 -34 -46 -46 -46 -6 0 -2 7 8 15 11 8 15 15 9 15 -5 0 -18 -10
-29 -22 -12 -13 -13 -18 -4 -13 13 8 13 7 1 -8 -15 -19 -36 -23 -25 -5 4 6
-10 -1 -32 -17 -68 -50 -70 -60 -1 -13 15 11 27 17 27 14 0 -3 -20 -19 -45
-36 -25 -17 -45 -26 -45 -20 0 6 -5 8 -10 5 -6 -4 -7 -11 -4 -17 4 -7 2 -8 -4
-4 -11 6 -72 -19 -72 -30 0 -2 14 2 30 11 17 9 30 13 30 11 0 -7 -57 -37 -67
-35 -21 4 -33 -2 -27 -13 4 -6 3 -8 -4 -4 -13 8 -94 -23 -87 -34 7 -12 -92
-43 -106 -34 -7 4 -9 3 -6 -3 8 -13 -126 -48 -149 -39 -8 3 -12 2 -9 -4 3 -6
-2 -10 -13 -10 -20 0 -32 48 -47 190 -7 62 -32 147 -45 155 -5 3 -3 -13 6 -37
10 -28 16 -92 19 -180 l4 -137 -57 -7 c-104 -15 -171 -11 -360 18 -69 10 -95
23 -76 37 5 3 16 20 24 36 8 17 16 34 19 39 2 5 -1 6 -7 2 -7 -4 -12 -13 -12
-19 0 -7 -13 -26 -28 -44 l-27 -32 -97 34 c-129 44 -188 72 -278 131 -93 61
-112 72 -80 45 67 -56 209 -134 323 -177 l125 -47 -26 -33 c-15 -19 -33 -32
-42 -30 -8 3 -64 14 -125 26 -136 26 -243 75 -345 157 -120 95 -342 321 -389
395 -24 38 -45 68 -47 68 -15 0 88 -171 156 -260 15 -19 35 -56 44 -82 15 -41
21 -48 45 -48 34 0 70 -37 105 -107 56 -112 96 -139 291 -198 66 -20 149 -51
185 -70 117 -59 160 -70 224 -56 55 12 57 12 111 -19 50 -28 65 -32 156 -36
55 -2 127 -11 159 -19 79 -20 101 -19 151 10 24 14 54 25 67 25 12 0 34 7 47
16 19 12 39 14 98 9 97 -9 119 1 167 79 20 33 41 47 129 89 79 37 117 61 151
97 34 36 59 52 103 66 68 21 79 32 102 102 16 50 23 59 112 129 12 10 24 29
25 43 6 47 40 90 80 100 50 14 85 62 69 96 -17 38 -13 52 18 68 26 14 29 21
33 83 3 42 13 84 27 110 11 24 28 73 37 110 8 38 25 83 36 102 19 30 20 43 15
147 -5 89 -3 119 8 141 8 15 15 36 15 45 0 10 9 39 19 65 l19 49 -23 54 c-42
97 -49 154 -30 224 25 87 23 101 -24 151 -22 24 -42 51 -42 60 -1 8 -3 20 -4
25 -1 6 -3 14 -4 19 0 5 -18 19 -38 32 -49 29 -63 47 -63 80 0 14 -7 46 -16
70 -10 27 -16 71 -15 114 2 119 5 116 -216 215 -57 25 -64 35 -33 45 11 4 48
29 82 56 34 27 65 49 70 49 18 0 54 -24 98 -67 32 -30 64 -49 110 -64 36 -12
72 -28 81 -36 11 -9 23 -11 39 -5 l23 9 -22 20 c-13 12 -50 36 -83 53 -33 18
-84 54 -114 81 -29 26 -61 52 -72 58 -25 13 -70 17 -99 7 -22 -7 -23 -5 -23
42 0 46 3 53 39 81 35 28 45 31 102 30 97 -3 142 14 186 67 21 25 37 50 35 55
-1 5 5 12 13 15 8 4 15 17 15 29 0 13 5 27 11 31 6 3 9 15 6 25 -3 10 -1 19 4
21 5 2 11 45 15 95 6 90 1 144 -14 142 -4 -1 -24 -6 -44 -11z m32 -32 c0 -2
-8 -10 -17 -17 -16 -13 -17 -12 -4 4 13 16 21 21 21 13z m-65 -315 c-30 -12
-101 -24 -93 -15 4 4 25 10 45 14 52 10 72 10 48 1z m-1435 -195 c106 -6 253
-32 345 -63 52 -16 173 -70 283 -126 136 -68 404 -296 381 -323 -30 -36 -48
-28 -160 80 -143 137 -152 144 -298 216 -151 76 -293 123 -431 144 -58 9 -136
23 -175 31 -38 8 -79 13 -90 11 -11 -2 -60 -12 -110 -22 -342 -66 -531 -142
-720 -288 l-59 -47 -18 23 c-10 13 -18 26 -18 30 -1 30 324 213 450 253 30 10
74 26 97 36 23 10 68 21 100 24 32 4 69 8 83 11 14 2 63 7 110 10 47 4 86 8
88 9 2 2 11 1 20 -1 9 -1 64 -5 122 -8z m-40 -80 c36 -8 108 -22 160 -32 107
-19 232 -60 335 -111 196 -96 222 -113 364 -250 60 -59 73 -75 62 -85 -10 -11
-18 -7 -42 20 -16 18 -29 28 -29 24 0 -5 9 -17 20 -27 26 -24 25 -27 -10 -54
l-30 -22 -69 67 c-167 161 -440 290 -676 319 -27 4 -71 13 -97 20 -25 7 -48
12 -50 10 -1 -2 -28 -6 -58 -10 -291 -35 -472 -98 -664 -232 l-78 -55 -29 35
c-15 19 -42 40 -59 47 -16 7 -30 15 -30 19 1 15 156 115 256 165 152 75 308
121 483 141 30 4 63 11 75 15 32 13 94 12 166 -4z m1186 -594 c129 -194 182
-320 229 -542 96 -456 -50 -945 -380 -1273 -207 -207 -469 -345 -766 -406 -52
-11 -110 -21 -129 -23 -35 -3 -35 -3 -38 40 -2 29 1 42 10 44 7 0 18 2 23 3
279 52 429 120 715 326 87 63 262 291 334 437 74 147 128 339 141 503 3 41 8
85 11 99 16 83 -12 255 -72 445 -32 102 -119 281 -178 365 l-45 64 27 17 c15
9 32 14 37 12 6 -2 42 -52 81 -111z m-736 -2032 c-8 -5 -19 -10 -25 -10 -5 0
-3 5 5 10 8 5 20 10 25 10 6 0 3 -5 -5 -10z m-710 -131 c115 -18 154 -20 225
-12 l85 9 0 -43 0 -43 -47 -1 c-169 -5 -397 19 -475 50 l-28 10 23 34 c19 30
25 33 50 26 16 -4 91 -18 167 -30z"/>
<path d="M1988 3003 c7 -3 16 -2 19 1 4 3 -2 6 -13 5 -11 0 -14 -3 -6 -6z"/>
<path d="M2417 2859 c7 -7 15 -10 18 -7 3 3 -2 9 -12 12 -14 6 -15 5 -6 -5z"/>
<path d="M2560 2788 c0 -3 39 -40 88 -84 48 -43 78 -68 67 -55 -24 28 -155
145 -155 139z"/>
<path d="M3210 3608 c-19 -13 -36 -26 -38 -30 -2 -5 -10 -8 -17 -8 -16 0 -65
-57 -65 -76 0 -8 -7 -14 -15 -14 -35 0 -40 -138 -7 -213 l18 -41 47 58 c26 32
44 63 40 68 -3 6 -1 8 4 5 6 -4 27 14 47 40 35 46 36 48 36 140 0 51 -3 93 -7
93 -5 0 -24 -10 -43 -22z"/>
<path d="M1735 2744 c-27 -8 -93 -24 -145 -35 -197 -42 -366 -133 -534 -287
-118 -109 -141 -144 -206 -307 -54 -138 -78 -231 -86 -337 -3 -40 -10 -86 -15
-102 -20 -64 -14 -94 61 -311 69 -197 167 -339 335 -483 61 -52 88 -73 60 -47
-149 142 -180 174 -224 233 -64 85 -118 197 -176 365 -41 119 -47 146 -42 190
30 272 42 326 108 494 60 151 68 164 181 276 152 150 332 253 518 297 52 13
124 31 159 41 81 24 122 24 168 -1 21 -11 51 -20 68 -19 25 1 23 2 -13 10 -23
4 -52 15 -64 23 -27 19 -86 19 -153 0z"/>
<path d="M2008 2703 c6 -2 18 -2 25 0 6 3 1 5 -13 5 -14 0 -19 -2 -12 -5z"/>
<path d="M2050 2696 c0 -2 9 -6 20 -9 11 -3 18 -1 14 4 -5 9 -34 13 -34 5z"/>
<path d="M2110 2680 c8 -5 20 -10 25 -10 6 0 3 5 -5 10 -8 5 -19 10 -25 10 -5
0 -3 -5 5 -10z"/>
<path d="M2237 2629 c7 -7 15 -10 18 -7 3 3 -2 9 -12 12 -14 6 -15 5 -6 -5z"/>
<path d="M1725 2577 c-11 -7 -56 -21 -99 -31 -106 -22 -207 -64 -308 -126
-123 -76 -144 -95 -194 -168 -24 -37 -60 -89 -79 -115 -43 -61 -101 -237 -115
-349 -5 -46 -16 -106 -24 -135 -17 -62 -9 -107 28 -163 14 -21 28 -51 32 -67
12 -52 84 -187 135 -256 28 -37 76 -89 106 -115 31 -26 77 -65 102 -87 56 -49
96 -78 61 -44 -14 13 -65 60 -114 104 -126 114 -212 243 -261 395 -10 30 -29
71 -42 91 -30 46 -35 89 -17 147 8 26 17 67 20 92 10 90 26 157 56 245 29 84
51 122 163 278 33 44 147 126 255 181 70 36 168 69 240 81 25 4 53 14 62 22
19 17 19 17 193 -16 138 -25 170 -35 261 -76 104 -48 159 -87 238 -168 l69
-72 -54 64 c-131 156 -308 235 -664 297 -17 3 -38 -1 -50 -9z"/>
<path d="M2430 2525 c13 -14 26 -25 28 -25 3 0 -5 11 -18 25 -13 14 -26 25
-28 25 -3 0 5 -11 18 -25z"/>
<path d="M2860 2476 c0 -2 8 -10 18 -17 15 -13 16 -12 3 4 -13 16 -21 21 -21
13z"/>
<path d="M2899 2425 c5 -11 17 -29 26 -40 l16 -20 -10 20 c-5 11 -17 29 -26
40 l-16 20 10 -20z"/>
<path d="M1670 2398 c-186 -57 -307 -123 -399 -216 -95 -96 -169 -271 -186
-437 -4 -38 -9 -73 -12 -78 -13 -22 -2 -96 21 -143 14 -29 26 -55 26 -59 0
-16 74 -152 103 -190 51 -66 209 -215 251 -237 11 -6 -1 9 -28 33 -146 129
-227 250 -306 456 -27 71 -30 87 -21 120 6 21 13 61 16 88 17 145 74 295 147
388 38 47 126 115 209 161 79 43 267 106 317 106 97 -1 390 -108 457 -167 39
-34 133 -165 163 -228 17 -34 47 -79 66 -100 41 -43 46 -85 22 -171 -8 -27
-17 -77 -20 -112 -4 -34 -11 -75 -17 -90 -6 -15 -10 -29 -10 -32 2 -14 -36
-112 -63 -164 -39 -75 -91 -128 -186 -191 -107 -71 -165 -100 -248 -125 -102
-30 -86 -34 21 -5 106 28 258 103 336 165 118 95 195 270 207 469 1 31 8 72
13 91 20 64 14 113 -19 158 -17 23 -35 42 -40 42 -5 0 -23 26 -39 58 -33 65
-134 204 -177 243 -83 76 -373 190 -481 188 -32 0 -87 -9 -123 -21z"/>
<path d="M2576 2387 c3 -10 9 -15 12 -12 3 3 0 11 -7 18 -10 9 -11 8 -5 -6z"/>
<path d="M585 2379 c-4 -6 -5 -12 -2 -15 2 -3 7 2 10 11 7 17 1 20 -8 4z"/>
<path d="M2971 2300 c29 -57 47 -81 31 -42 -14 34 -52 102 -57 102 -3 0 9 -27
26 -60z"/>
<path d="M541 2293 c-10 -26 -10 -27 4 -9 8 11 15 23 15 28 0 15 -7 8 -19 -19z"/>
<path d="M2630 2316 c0 -2 8 -10 18 -17 15 -13 16 -12 3 4 -13 16 -21 21 -21
13z"/>
<path d="M1748 2243 c6 -2 18 -2 25 0 6 3 1 5 -13 5 -14 0 -19 -2 -12 -5z"/>
<path d="M2690 2233 c0 -6 9 -21 21 -34 l20 -24 -17 30 c-24 39 -24 40 -24 28z"/>
<path d="M505 2219 c-4 -6 -5 -12 -2 -15 2 -3 7 2 10 11 7 17 1 20 -8 4z"/>
<path d="M3010 2225 c0 -5 5 -17 10 -25 5 -8 10 -10 10 -5 0 6 -5 17 -10 25
-5 8 -10 11 -10 5z"/>
<path d="M1655 2205 c-16 -8 -23 -14 -15 -14 8 0 26 6 40 14 32 18 15 18 -25
0z"/>
<path d="M2530 2164 c21 -33 55 -98 75 -145 20 -46 47 -95 60 -109 35 -37 44
-93 29 -169 -8 -35 -16 -89 -19 -120 -7 -65 -35 -180 -65 -265 -11 -33 -20
-68 -20 -78 0 -50 -111 -183 -185 -221 -16 -9 -41 -26 -55 -39 -55 -51 -162
-112 -270 -155 -32 -12 -33 -13 -5 -8 44 9 206 89 257 128 24 19 64 46 88 60
60 35 159 133 176 173 7 17 16 45 18 61 3 16 13 49 21 74 28 78 53 192 65 289
7 52 14 112 17 133 8 56 -5 104 -36 140 -15 17 -50 79 -78 137 -29 58 -65 121
-82 140 -26 30 -25 26 9 -26z"/>
<path d="M1705 2190 c-3 -6 1 -7 9 -4 18 7 21 14 7 14 -6 0 -13 -4 -16 -10z"/>
<path d="M486 2175 c-9 -26 -7 -32 5 -12 6 10 9 21 6 23 -2 3 -7 -2 -11 -11z"/>
<path d="M1578 2174 c-39 -21 -35 -28 5 -8 37 19 44 24 31 24 -5 -1 -21 -8
-36 -16z"/>
<path d="M3030 2175 c0 -5 5 -17 10 -25 5 -8 10 -10 10 -5 0 6 -5 17 -10 25
-5 8 -10 11 -10 5z"/>
<path d="M1640 2160 c-8 -5 -10 -10 -5 -10 6 0 17 5 25 10 8 5 11 10 5 10 -5
0 -17 -5 -25 -10z"/>
<path d="M2730 2167 c0 -4 7 -21 15 -37 19 -38 92 -239 112 -310 9 -32 12 -70
9 -95 -4 -22 -11 -80 -16 -129 -5 -48 -12 -102 -15 -120 -8 -39 -55 -188 -64
-201 -4 -5 -27 -57 -51 -114 -52 -121 -101 -182 -193 -238 -34 -21 -83 -53
-109 -73 -27 -19 -83 -54 -125 -77 -43 -24 -74 -43 -70 -43 16 0 94 44 187
104 52 35 119 77 148 96 83 51 122 105 190 257 66 150 96 240 106 318 24 179
25 304 3 360 -8 22 -33 87 -54 145 -37 99 -72 175 -73 157z"/>
<path d="M1463 2097 c-34 -28 -74 -66 -88 -84 -51 -63 -105 -214 -105 -295 0
-20 -4 -39 -9 -42 -11 -7 -20 -55 -12 -61 4 -2 8 8 9 23 1 14 7 31 12 36 6 6
10 26 10 46 0 47 25 143 54 205 31 68 79 125 150 180 32 25 54 45 50 45 -5 0
-37 -24 -71 -53z"/>
<path d="M1549 2120 c-52 -28 -146 -116 -174 -164 -41 -70 -53 -111 -90 -311
-3 -16 1 -10 9 15 8 25 21 81 30 125 9 44 28 105 43 135 29 61 126 161 185
191 21 11 38 22 38 24 0 7 0 7 -41 -15z"/>
<path d="M3050 2124 c0 -7 7 -27 15 -45 8 -19 14 -29 15 -23 0 7 -7 27 -15 45
-8 19 -14 29 -15 23z"/>
<path d="M1724 2086 c-18 -8 -35 -19 -38 -25 -4 -6 -27 -19 -51 -30 -83 -37
-158 -123 -195 -224 -14 -39 -23 -170 -16 -221 5 -33 18 -56 48 -88 31 -34 33
-35 9 -6 -43 54 -53 100 -42 200 6 46 15 99 22 118 30 86 99 163 184 207 28
14 52 29 55 34 10 15 77 38 98 34 11 -2 54 -15 94 -30 88 -32 83 -22 -9 17
-74 31 -112 34 -159 14z"/>
<path d="M451 2064 c0 -11 3 -14 6 -6 3 7 2 16 -1 19 -3 4 -6 -2 -5 -13z"/>
<path d="M2200 2066 c0 -2 8 -10 18 -17 15 -13 16 -12 3 4 -13 16 -21 21 -21
13z"/>
<path d="M3082 2030 c0 -8 4 -26 8 -40 6 -20 8 -21 8 -5 0 11 -3 29 -8 40 -5
12 -8 14 -8 5z"/>
<path d="M1971 2026 c2 -2 15 -9 29 -15 24 -11 24 -11 6 3 -16 13 -49 24 -35
12z"/>
<path d="M2060 1976 c0 -2 8 -10 18 -17 15 -13 16 -12 3 4 -13 16 -21 21 -21
13z"/>
<path d="M3100 1944 c0 -10 5 -26 10 -34 8 -11 9 -7 4 15 -8 37 -14 45 -14 19z"/>
<path d="M1715 1922 c-72 -34 -117 -83 -139 -149 -17 -52 -24 -119 -13 -130 4
-3 7 10 7 30 0 52 36 142 72 177 47 47 122 81 182 83 61 1 112 -27 171 -95 21
-24 33 -35 28 -25 -17 33 -93 105 -127 121 -51 24 -112 20 -181 -12z"/>
<path d="M2260 1906 c0 -2 8 -10 18 -17 15 -13 16 -12 3 4 -13 16 -21 21 -21
13z"/>
<path d="M1773 1880 c-49 -7 -108 -45 -123 -80 l-11 -25 23 27 c58 67 193 83
251 30 27 -25 58 -88 68 -141 l8 -46 -3 51 c-3 62 -38 136 -74 160 -34 22 -86
31 -139 24z"/>
<path d="M3110 1880 c0 -5 5 -10 11 -10 5 0 7 5 4 10 -3 6 -8 10 -11 10 -2 0
-4 -4 -4 -10z"/>
<path d="M3127 1825 c3 -22 10 -62 13 -90 7 -49 7 -49 8 -10 1 22 -5 63 -13
90 -13 43 -14 45 -8 10z"/>
<path d="M1905 1786 c10 -14 19 -26 22 -26 7 0 -17 39 -28 46 -6 3 -3 -5 6
-20z"/>
<path d="M2177 1668 c-5 -101 -22 -151 -69 -210 -34 -44 -154 -121 -229 -148
-30 -11 -46 -19 -35 -20 39 0 204 88 251 134 64 65 86 120 92 239 3 53 4 97 1
97 -3 0 -8 -42 -11 -92z"/>
<path d="M1937 1704 c6 -68 11 -77 12 -24 0 25 -3 51 -8 59 -5 8 -7 -5 -4 -35z"/>
<path d="M3130 1655 c0 -14 2 -25 4 -25 2 0 6 11 8 25 3 14 1 25 -3 25 -5 0
-9 -11 -9 -25z"/>
<path d="M2345 1649 c-4 -6 -5 -12 -2 -15 2 -3 7 2 10 11 7 17 1 20 -8 4z"/>
<path d="M2035 1609 c-10 -46 -86 -123 -147 -149 -38 -16 -63 -20 -97 -16 -32
3 -39 2 -21 -4 70 -23 134 -4 204 60 41 38 87 122 73 136 -3 3 -8 -9 -12 -27z"/>
<path d="M1570 1610 c6 -11 13 -20 16 -20 2 0 0 9 -6 20 -6 11 -13 20 -16 20
-2 0 0 -9 6 -20z"/>
<path d="M1630 1625 c0 -4 9 -23 21 -41 42 -69 135 -100 213 -70 25 9 50 24
57 32 8 10 -1 7 -24 -6 -76 -45 -193 -17 -244 59 -13 19 -23 30 -23 26z"/>
<path d="M1920 1609 c-6 -11 -26 -29 -43 -39 -18 -11 -27 -20 -21 -20 16 0 62
38 74 61 6 10 8 19 6 19 -3 0 -10 -9 -16 -21z"/>
<path d="M1281 1594 c0 -11 3 -14 6 -6 3 7 2 16 -1 19 -3 4 -6 -2 -5 -13z"/>
<path d="M1247 1579 c4 -13 8 -18 11 -10 2 7 -1 18 -6 23 -8 8 -9 4 -5 -13z"/>
<path d="M2301 1584 c0 -11 3 -14 6 -6 3 7 2 16 -1 19 -3 4 -6 -2 -5 -13z"/>
<path d="M2341 1584 c0 -11 3 -14 6 -6 3 7 2 16 -1 19 -3 4 -6 -2 -5 -13z"/>
<path d="M3122 1540 c0 -19 2 -27 5 -17 2 9 2 25 0 35 -3 9 -5 1 -5 -18z"/>
<path d="M2288 1545 c-3 -11 -9 -29 -13 -40 -3 -11 1 -7 10 8 9 16 15 33 12
40 -2 6 -6 3 -9 -8z"/>
<path d="M2332 1540 c0 -14 2 -19 5 -12 2 6 2 18 0 25 -3 6 -5 1 -5 -13z"/>
<path d="M1260 1544 c0 -6 7 -19 16 -30 14 -18 14 -18 3 6 -14 31 -19 36 -19
24z"/>
<path d="M1325 1500 c10 -11 20 -20 23 -20 3 0 -3 9 -13 20 -10 11 -20 20 -23
20 -3 0 3 -9 13 -20z"/>
<path d="M1305 1470 c10 -11 20 -20 23 -20 3 0 -3 9 -13 20 -10 11 -20 20 -23
20 -3 0 3 -9 13 -20z"/>
<path d="M2255 1469 c-4 -6 -5 -12 -2 -15 2 -3 7 2 10 11 7 17 1 20 -8 4z"/>
<path d="M3112 1450 c0 -14 2 -19 5 -12 2 6 2 18 0 25 -3 6 -5 1 -5 -13z"/>
<path d="M1530 1425 c13 -14 26 -25 28 -25 3 0 -5 11 -18 25 -13 14 -26 25
-28 25 -3 0 5 -11 18 -25z"/>
<path d="M2286 1433 c-6 -14 -5 -15 5 -6 7 7 10 15 7 18 -3 3 -9 -2 -12 -12z"/>
<path d="M2231 1413 c-10 -26 -10 -27 4 -9 8 11 15 23 15 28 0 15 -7 8 -19
-19z"/>
<path d="M1340 1423 c0 -6 8 -17 18 -24 16 -13 16 -13 2 6 -8 11 -16 22 -17
24 -2 2 -3 0 -3 -6z"/>
<path d="M3101 1404 c0 -11 3 -14 6 -6 3 7 2 16 -1 19 -3 4 -6 -2 -5 -13z"/>
<path d="M2266 1393 c-6 -14 -5 -15 5 -6 7 7 10 15 7 18 -3 3 -9 -2 -12 -12z"/>
<path d="M2240 1350 c-6 -11 -8 -20 -6 -20 3 0 10 9 16 20 6 11 8 20 6 20 -3
0 -10 -9 -16 -20z"/>
<path d="M3091 1354 c0 -11 3 -14 6 -6 3 7 2 16 -1 19 -3 4 -6 -2 -5 -13z"/>
<path d="M2169 1323 l-24 -28 28 24 c25 23 32 31 24 31 -2 0 -14 -12 -28 -27z"/>
<path d="M2195 1294 c-18 -16 -22 -22 -9 -15 18 9 53 42 43 41 -2 -1 -17 -12
-34 -26z"/>
<path d="M3046 1215 c-9 -26 -7 -32 5 -12 6 10 9 21 6 23 -2 3 -7 -2 -11 -11z"/>
<path d="M3026 1155 c-9 -26 -7 -32 5 -12 6 10 9 21 6 23 -2 3 -7 -2 -11 -11z"/>
<path d="M550 1121 c0 -6 5 -11 10 -11 6 0 10 -7 8 -16 -2 -10 3 -18 10 -20 7
-1 8 0 3 2 -6 3 -8 11 -5 18 3 7 -2 19 -11 26 -10 8 -15 9 -15 1z"/>
<path d="M3006 1103 c-6 -14 -5 -15 5 -6 7 7 10 15 7 18 -3 3 -9 -2 -12 -12z"/>
<path d="M530 1090 c0 -5 5 -10 11 -10 5 0 7 5 4 10 -3 6 -8 10 -11 10 -2 0
-4 -4 -4 -10z"/>
<path d="M1515 1020 c27 -12 43 -12 25 0 -8 5 -22 9 -30 9 -10 0 -8 -3 5 -9z"/>
<path d="M1638 1003 c7 -3 16 -2 19 1 4 3 -2 6 -13 5 -11 0 -14 -3 -6 -6z"/>
<path d="M1868 973 c7 -3 16 -2 19 1 4 3 -2 6 -13 5 -11 0 -14 -3 -6 -6z"/>
<path d="M2749 903 c-13 -16 -12 -17 4 -4 16 13 21 21 13 21 -2 0 -10 -8 -17
-17z"/>
<path d="M630 906 c0 -2 8 -10 18 -17 15 -13 16 -12 3 4 -13 16 -21 21 -21 13z"/>
<path d="M2714 858 l-19 -23 23 19 c21 18 27 26 19 26 -2 0 -12 -10 -23 -22z"/>
<path d="M2018 843 c7 -3 16 -2 19 1 4 3 -2 6 -13 5 -11 0 -14 -3 -6 -6z"/>
<path d="M695 820 c10 -11 20 -20 23 -20 3 0 -3 9 -13 20 -10 11 -20 20 -23
20 -3 0 3 -9 13 -20z"/>
<path d="M2649 793 c-13 -16 -12 -17 4 -4 16 13 21 21 13 21 -2 0 -10 -8 -17
-17z"/>
<path d="M730 784 c0 -5 30 -39 68 -74 l67 -65 -65 70 c-36 38 -66 71 -67 74
-2 2 -3 0 -3 -5z"/>
<path d="M1275 770 c10 -11 20 -20 23 -20 3 0 -3 9 -13 20 -10 11 -20 20 -23
20 -3 0 3 -9 13 -20z"/>
<path d="M2155 710 c-13 -6 -15 -9 -5 -9 8 0 22 4 30 9 18 12 2 12 -25 0z"/>
<path d="M2499 693 c-13 -16 -12 -17 4 -4 16 13 21 21 13 21 -2 0 -10 -8 -17
-17z"/>
<path d="M2445 660 c-3 -6 1 -7 9 -4 18 7 21 14 7 14 -6 0 -13 -4 -16 -10z"/>
<path d="M903 610 c14 -11 28 -20 32 -20 4 0 -4 9 -18 20 -14 11 -28 20 -32
20 -4 0 4 -9 18 -20z"/>
</g>
</svg>
